<svg width="28" height="28" viewBox="0 0 178 178" fill="none" xmlns="http://www.w3.org/2000/svg">
<path d="M28.2123 51.1912C29.0185 47.7101 31.0002 44.6019 33.8329 42.3757C36.6657 40.1495 40.1815 38.9373 43.8047 38.9375H139.758C143.381 38.9373 146.897 40.1495 149.73 42.3757C152.562 44.6019 154.544 47.7101 155.35 51.1912L91.7812 89.4811L28.2123 51.1912ZM27.8125 60.1904V116.171L74.2138 88.1336L27.8125 60.1904ZM81.8741 92.7593L29.3398 124.493C30.6377 127.19 32.6863 129.469 35.2471 131.063C37.8079 132.658 40.7756 133.503 43.8047 133.5H139.758C142.786 133.501 145.753 132.654 148.312 131.058C150.872 129.462 152.918 127.183 154.215 124.485L101.68 92.7514L91.7812 98.7168L81.8741 92.7514V92.7593ZM109.349 88.1415L155.75 116.171V60.1904L109.349 88.1336V88.1415Z" fill="#ABB2BF"/>
</svg>
