<svg width="348" height="348" viewBox="0 0 348 348" fill="none" xmlns="http://www.w3.org/2000/svg">
<path d="M303.413 92.22C257.955 21.75 164.865 0.86999 92.8726 44.5875C22.6201 88.305 5.89192e-05 183.57 45.4576 253.823L49.1551 259.478L33.9301 316.463L90.9151 301.238L96.5701 304.935C121.148 318.203 147.9 325.815 174.435 325.815C202.928 325.815 231.42 318.203 255.998 302.978C326.25 257.303 347.13 163.995 303.413 91.785V92.22ZM263.61 238.815C255.998 250.125 246.428 257.738 233.16 259.695C225.548 259.695 215.978 263.393 178.133 248.385C145.943 233.16 119.19 208.365 100.268 179.873C88.9576 166.605 83.0851 149.423 81.3451 132.24C81.3451 117.015 87.0001 103.747 96.5701 94.1775C100.268 90.48 104.183 88.5225 107.88 88.5225H117.45C121.148 88.5225 125.063 88.5225 127.02 96.135C130.718 105.705 140.288 128.543 140.288 130.5C142.245 132.458 141.375 147.03 132.675 155.295C127.89 160.733 127.02 160.95 128.978 164.865C136.59 176.175 146.16 187.703 155.513 197.273C166.823 206.843 178.35 214.455 191.618 220.11C195.315 222.068 199.23 222.068 201.188 218.153C203.145 214.455 212.498 204.885 216.413 200.97C220.11 197.273 222.068 197.273 225.983 199.013L256.433 214.238C260.13 216.195 264.045 217.935 266.003 219.893C267.96 225.548 267.96 233.16 264.045 238.815H263.61Z" fill="#ABB2BF"/>
</svg>
